<svg xmlns="http://www.w3.org/2000/svg" version="1.1" viewBox="0 0 1200 800" width="1200" height="800">
<defs/><!--ITEM: Text 1--><g transform="translate(324.0 267.0) rotate(0.0 275.5 133.0)  scale(1.0 1.0)"><svg width="551.0" height="266.0" viewBox="0.0 0.0 551.0 266.0"><g transform="translate(70 70)">
      <path fill="#840C0C" stroke="#840C0C" d="M152.49 45.29L152.49 45.29Q152.35 44.10 151.96 42.95Q151.58 41.79 150.81 41.23L150.81 41.23Q150.25 40.88 149.41 40.74Q148.57 40.60 147.10 40.60L147.10 40.60L146.75 40.32L146.54 37.66L146.68 37.38Q147.31 37.45 148.39 37.52Q149.48 37.59 150.63 37.66Q151.79 37.73 152.84 37.77Q153.89 37.80 154.52 37.80L154.52 37.80L158.65 37.80Q159.28 37.80 160.29 37.77Q161.31 37.73 162.46 37.66Q163.62 37.59 164.70 37.52Q165.79 37.45 166.49 37.38L166.49 37.38L166.63 37.66L166.42 40.32L166.14 40.60Q164.39 40.60 163.58 40.78Q162.78 40.95 162.29 41.30L162.29 41.30Q160.82 42.28 160.61 45.29L160.61 45.29Q160.54 45.99 160.50 46.73Q160.47 47.46 160.47 48.62Q160.47 49.77 160.47 51.52Q160.47 53.27 160.47 55.93L160.47 55.93L160.47 65.31Q160.47 68.04 160.47 69.76Q160.47 71.47 160.50 72.63Q160.54 73.78 160.57 74.66Q160.61 75.53 160.75 76.72L160.75 76.72Q160.82 78.12 162.36 78.12L162.36 78.12L168.87 78.12Q171.18 78.12 172.54 78.02Q173.91 77.91 174.68 77.46Q175.45 77.00 175.87 76.16Q176.29 75.32 176.64 73.85L176.64 73.85L176.85 73.57L180.07 73.57L178.81 83.16L178.25 83.86Q177.69 83.79 176.50 83.76Q175.31 83.72 173.98 83.69Q172.65 83.65 171.35 83.62Q170.06 83.58 169.36 83.58L169.36 83.58L154.52 83.58Q154.03 83.58 152.94 83.62Q151.86 83.65 150.67 83.72Q149.48 83.79 148.36 83.86Q147.24 83.93 146.68 84.00L146.68 84.00L146.54 83.72L146.75 81.06L147.10 80.78Q149.76 80.78 150.74 80.01L150.74 80.01Q151.30 79.52 151.82 78.47Q152.35 77.42 152.49 76.02L152.49 76.02Q152.56 75.32 152.59 74.10Q152.63 72.87 152.66 71.54Q152.70 70.21 152.70 69.06Q152.70 67.90 152.70 67.41L152.70 67.41L152.70 56.00Q152.70 52.15 152.66 49.25Q152.63 46.34 152.49 45.29ZM207.02 37.03L207.79 37.03L219.83 68.81Q220.46 70.56 220.95 71.75Q221.44 72.94 221.75 73.78Q222.07 74.62 222.31 75.15Q222.56 75.67 222.77 76.09L222.77 76.09Q223.61 77.84 224.48 78.79Q225.36 79.73 226.23 80.19Q227.11 80.64 228.02 80.71Q228.93 80.78 229.84 80.78L229.84 80.78L230.19 81.06L230.40 83.72L230.26 84.00Q229.77 84.00 228.79 83.93Q227.81 83.86 226.76 83.79Q225.71 83.72 224.76 83.65Q223.82 83.58 223.33 83.58L223.33 83.58L218.22 83.58Q217.73 83.58 216.61 83.65Q215.49 83.72 214.26 83.79Q213.04 83.86 211.92 83.93Q210.80 84.00 210.31 84.00L210.31 84.00L210.17 83.72L210.38 81.06L210.66 80.78Q212.48 80.78 213.42 80.33Q214.37 79.87 214.37 77.84L214.37 77.84Q214.37 76.72 213.98 74.66Q213.60 72.59 212.20 69.51L212.20 69.51L210.73 66.15L198.48 66.15L197.08 69.51Q195.82 72.59 195.19 74.76Q194.56 76.93 194.56 77.84L194.56 77.84Q194.56 79.52 195.26 80.15Q195.96 80.78 197.78 80.78L197.78 80.78L198.13 81.06L198.34 83.72L198.20 84.00Q197.71 84.00 196.66 83.93Q195.61 83.86 194.45 83.79Q193.30 83.72 192.25 83.65Q191.20 83.58 190.71 83.58L190.71 83.58L186.58 83.58Q186.09 83.58 185.11 83.65Q184.13 83.72 183.08 83.79Q182.03 83.86 181.08 83.93Q180.14 84.00 179.65 84.00L179.65 84.00L179.58 83.72L179.72 81.06L180.07 80.78Q180.98 80.78 181.89 80.64Q182.80 80.50 183.71 80.01Q184.62 79.52 185.49 78.65Q186.37 77.77 187.28 76.37L187.28 76.37Q187.49 75.95 187.91 75.08Q188.33 74.20 189.24 71.96Q190.15 69.72 191.76 65.59Q193.37 61.46 196.03 54.60L196.03 54.60L202.05 39.13L207.02 37.03ZM204.36 48.65L199.67 61.04L208.84 61.04L204.36 48.65ZM257.84 83.72L257.70 84.00Q257.21 84.00 256.16 83.93Q255.11 83.86 253.92 83.79Q252.73 83.72 251.68 83.65Q250.63 83.58 250.14 83.58L250.14 83.58L243.35 83.58Q242.86 83.58 241.81 83.65Q240.76 83.72 239.60 83.79Q238.45 83.86 237.40 83.93Q236.35 84.00 235.86 84.00L235.86 84.00L235.72 83.72L235.93 81.06L236.28 80.78Q237.33 80.78 238.76 80.71Q240.20 80.64 240.83 80.08L240.83 80.08Q241.39 79.59 241.95 78.82Q242.51 78.05 242.72 76.09L242.72 76.09Q242.79 75.60 242.82 74.94Q242.86 74.27 242.89 73.29Q242.93 72.31 242.93 70.91Q242.93 69.51 242.93 67.41L242.93 67.41L242.93 54.60Q242.93 50.75 242.86 47.74Q242.79 44.73 242.72 43.26L242.72 43.26L241.95 43.26Q239.29 43.26 237.54 43.30Q235.79 43.33 234.74 43.44Q233.69 43.54 233.16 43.68Q232.64 43.82 232.43 44.03L232.43 44.03Q231.66 44.38 231.17 45.15Q230.68 45.92 230.54 46.97L230.54 46.97L230.26 47.25L227.25 47.25L227.74 37.87L228.02 37.24L228.44 37.03Q229.00 37.24 230.89 37.42Q232.78 37.59 235.02 37.66Q237.26 37.73 239.32 37.77Q241.39 37.80 242.30 37.80L242.30 37.80L251.12 37.80Q252.03 37.80 254.09 37.77Q256.16 37.73 258.40 37.66Q260.64 37.59 262.53 37.42Q264.42 37.24 264.98 37.03L264.98 37.03L265.40 37.24L265.68 37.87L266.24 47.25L263.16 47.25L262.88 46.97Q262.74 45.92 262.25 45.15Q261.76 44.38 260.99 44.03L260.99 44.03Q260.78 43.75 260.25 43.58Q259.73 43.40 258.68 43.33Q257.63 43.26 255.91 43.26Q254.20 43.26 251.54 43.26L251.54 43.26L250.77 43.26Q250.70 44.94 250.66 47.74Q250.63 50.54 250.63 54.53L250.63 54.53L250.63 66.01Q250.63 68.53 250.63 70.11Q250.63 71.68 250.66 72.73Q250.70 73.78 250.73 74.52Q250.77 75.25 250.84 76.09L250.84 76.09Q250.98 78.12 251.61 78.89Q252.24 79.66 252.80 80.08L252.80 80.08Q253.08 80.36 253.60 80.50Q254.13 80.64 254.76 80.71Q255.39 80.78 256.05 80.78Q256.72 80.78 257.28 80.78L257.28 80.78L257.63 81.06L257.84 83.72Z" stroke-width="0"/>
    </g>
  </svg></g></svg>